<?xml version="1.0" standalone="no"?>
<!DOCTYPE svg PUBLIC "-//W3C//DTD SVG 20010904//EN"
 "http://www.w3.org/TR/2001/REC-SVG-20010904/DTD/svg10.dtd">
<svg version="1.0" xmlns="http://www.w3.org/2000/svg"
 width="1135.000000pt" height="498.000000pt" viewBox="0 0 1135.000000 498.000000"
 preserveAspectRatio="xMidYMid meet">

<g transform="translate(0.000000,498.000000) scale(0.100000,-0.100000)"
fill="#000000" stroke="none">
<path d="M1784 4481 c-107 -54 -263 -234 -412 -476 -59 -95 -212 -380 -212
-395 0 -7 10 -10 28 -6 35 7 80 13 225 28 94 10 133 10 200 -1 45 -7 90 -14
100 -14 9 -1 17 -5 17 -9 0 -4 7 -5 15 -2 8 4 16 1 16 -5 1 -6 2 -16 3 -22 0
-6 10 -17 20 -25 18 -13 15 -17 -48 -80 -36 -36 -91 -98 -120 -138 -50 -68
-57 -74 -98 -79 -23 -3 -99 -13 -168 -23 -99 -15 -188 -19 -430 -19 -168 0
-344 4 -392 8 -77 8 -88 7 -88 -7 0 -9 6 -16 14 -16 8 0 29 -18 46 -40 17 -22
38 -40 46 -40 8 0 17 -7 20 -15 4 -8 10 -12 15 -9 5 3 12 -2 15 -10 3 -9 10
-14 14 -11 4 3 10 -2 14 -10 3 -8 14 -15 25 -15 10 0 21 -7 25 -15 3 -8 9 -14
13 -13 14 3 53 -13 53 -22 0 -8 28 -21 58 -26 23 -4 22 -9 -13 -61 -73 -109
-140 -268 -151 -358 -2 -16 -8 -52 -14 -80 -13 -65 -20 -156 -10 -150 4 2 17
-9 29 -25 12 -17 28 -30 36 -30 8 0 14 -4 13 -8 -2 -4 13 -23 32 -41 19 -19
28 -30 20 -25 -9 5 -6 0 7 -11 13 -12 23 -26 23 -32 0 -7 10 -19 22 -27 12 -9
18 -16 13 -16 -5 0 1 -9 13 -20 12 -12 22 -27 22 -36 0 -8 7 -17 15 -20 8 -4
13 -10 10 -14 -3 -5 5 -18 17 -29 12 -12 18 -21 13 -21 -4 0 0 -9 10 -20 10
-11 14 -20 10 -20 -5 0 1 -10 13 -23 12 -13 19 -27 15 -30 -3 -4 -1 -7 5 -7 9
0 25 -31 27 -52 0 -4 6 -13 12 -20 7 -6 13 -15 13 -18 0 -4 -39 -13 -87 -20
-49 -7 -142 -26 -208 -42 -107 -26 -183 -36 -403 -54 l-62 -6 0 -491 0 -492
157 0 c188 -1 414 -31 743 -100 404 -84 985 -239 1294 -345 136 -47 142 -47
299 1 104 32 359 149 492 227 44 25 197 118 340 206 502 308 515 315 855 509
182 103 338 184 450 232 114 50 132 80 81 137 l-30 33 -148 -1 -148 -1 -138
-47 c-152 -51 -338 -142 -491 -239 l-99 -63 -1 -80 c-1 -71 -5 -86 -31 -129
-37 -60 -125 -122 -231 -163 l-79 -31 -6 32 c-3 18 -3 35 0 38 3 3 38 17 76
32 83 32 161 89 187 137 16 28 18 49 15 104 -4 60 -8 73 -31 93 -15 13 -37 23
-49 23 -15 0 -7 8 27 25 49 25 50 25 70 6 21 -20 21 -20 96 28 305 197 643
321 872 321 68 0 79 2 76 16 -2 9 -16 26 -31 38 -35 26 -157 34 -265 17 -86
-13 -281 -77 -418 -137 -56 -24 -105 -44 -108 -44 -3 0 -6 17 -6 38 0 42 -12
34 155 102 99 40 318 109 352 111 10 0 5 5 -12 10 -37 11 -161 2 -235 -18
-148 -39 -242 -75 -251 -97 -6 -14 -7 -4 -3 34 4 30 8 58 10 61 1 3 29 14 61
24 86 28 89 39 10 32 -61 -6 -68 -5 -63 11 3 9 9 35 15 57 33 145 90 306 188
535 68 158 75 180 70 225 -10 116 -95 259 -278 468 -128 145 -399 401 -412
388 -4 -4 -8 -19 -9 -32 0 -13 -4 -49 -9 -79 -4 -30 -10 -73 -13 -95 -11 -94
-65 -268 -103 -327 -24 -38 -53 -51 -53 -23 0 26 -39 136 -77 214 l-35 73 17
47 c93 250 270 579 440 815 31 43 54 80 51 83 -17 17 -260 -90 -361 -160 l-49
-34 -54 96 c-71 126 -129 197 -231 282 -129 108 -156 124 -187 110 -69 -31
-273 -60 -426 -61 -133 0 -388 22 -523 46 -170 30 -193 29 -261 -5z m1260 -17
c3 -8 10 -13 15 -10 5 3 12 -1 15 -10 3 -8 10 -12 16 -9 6 3 13 -1 16 -9 3 -9
10 -14 14 -11 11 7 117 -109 175 -189 25 -36 69 -105 97 -153 27 -48 53 -92
57 -96 5 -4 49 19 99 52 87 59 258 148 267 140 2 -3 -36 -63 -84 -134 -177
-264 -301 -500 -372 -710 -21 -63 -31 -80 -45 -79 -11 1 -75 11 -144 23 -161
28 -398 38 -680 29 -123 -4 -226 -5 -228 -3 -8 8 155 106 270 163 65 31 118
63 118 69 0 7 -16 58 -35 113 -131 382 -297 638 -500 770 -67 43 -74 50 -45
44 19 -5 47 -8 63 -8 15 1 27 -3 27 -9 0 -5 7 -6 16 -3 9 4 44 1 78 -5 107
-19 342 -26 511 -13 61 4 179 34 212 53 27 15 60 13 67 -5z m-562 -606 c-1 -5
3 -8 10 -8 6 0 8 -3 5 -7 -4 -3 -2 -12 3 -19 6 -6 13 -21 15 -33 4 -20 0 -21
-74 -21 -43 0 -94 -3 -112 -7 l-34 -6 36 44 c20 24 58 59 84 77 l49 33 10 -23
c5 -13 8 -26 8 -30z m52 -126 c-6 -4 -15 -21 -18 -39 -9 -41 -29 -47 -55 -17
-13 15 -31 24 -48 23 l-28 -1 25 -9 c14 -5 30 -19 35 -32 20 -44 85 -29 85 20
0 45 24 18 52 -58 15 -41 27 -77 27 -80 1 -4 -41 -28 -91 -54 -100 -51 -220
-125 -255 -157 -17 -16 -30 -19 -56 -14 -63 12 -92 -8 -132 -87 -36 -75 -37
-97 -6 -155 29 -55 116 -48 152 13 11 18 27 36 36 39 32 13 33 -11 3 -67 -30
-57 -38 -87 -21 -87 5 0 32 5 60 12 71 16 82 5 74 -78 -8 -81 2 -94 72 -94 39
0 56 -5 70 -20 25 -28 33 -26 71 18 20 24 48 43 73 51 40 11 43 10 85 -20 36
-25 51 -30 83 -27 21 3 45 8 54 12 12 5 18 1 22 -13 2 -10 20 -27 38 -37 19
-9 43 -27 55 -39 12 -13 40 -26 65 -30 60 -10 69 -20 69 -75 0 -53 11 -67 61
-77 19 -3 40 -15 47 -25 7 -10 23 -18 35 -18 34 0 67 -28 67 -56 0 -35 -19
-77 -77 -167 l-50 -79 -12 64 c-26 130 -111 361 -128 344 -3 -3 -30 -99 -59
-213 -29 -115 -73 -274 -98 -355 -25 -81 -46 -150 -46 -153 0 -3 -9 -5 -20 -5
-10 0 -24 -9 -30 -19 -5 -11 -23 -22 -40 -26 -17 -4 -43 -17 -58 -29 -41 -34
-107 -65 -153 -72 l-41 -7 18 29 c10 16 28 41 40 56 12 15 25 43 28 64 4 20
21 61 37 90 36 63 41 124 13 156 -11 11 -45 38 -77 60 -59 40 -78 68 -97 143
-5 23 -23 54 -40 70 -37 35 -38 52 -5 67 30 14 32 24 5 31 -26 7 -25 15 10 70
23 36 35 46 52 44 22 -2 23 1 20 58 -3 76 -18 114 -48 121 -17 5 -29 0 -42
-16 l-18 -22 -30 28 c-16 16 -45 37 -63 47 -29 15 -33 21 -28 45 8 42 -4 52
-73 62 -40 6 -70 16 -85 30 -12 11 -44 24 -72 29 -29 4 -58 16 -71 29 -12 12
-31 22 -41 22 -11 0 -27 3 -36 6 -14 6 -14 8 1 25 17 18 16 23 -4 82 -12 34
-22 80 -22 102 0 51 -20 90 -45 90 -23 0 -32 -30 -34 -110 -1 -42 -3 -47 -13
-31 -7 12 -8 44 -4 87 4 41 2 70 -4 74 -5 3 -10 18 -10 32 0 19 19 46 71 97
39 39 79 81 90 93 23 25 167 88 247 109 55 15 148 28 125 18 -25 -11 -13 -30
20 -31 29 -1 30 -1 7 6 -25 8 -25 8 10 24 35 16 197 25 174 9z m-634 -176 c0
-2 -25 -22 -55 -45 -67 -51 -92 -93 -76 -129 8 -16 10 -49 5 -93 -6 -60 -4
-72 16 -104 36 -59 54 -44 61 50 3 44 6 69 7 55 1 -14 11 -59 22 -99 17 -58
19 -80 10 -104 -12 -37 -2 -51 48 -68 20 -7 48 -20 61 -30 15 -12 40 -19 68
-19 30 0 45 -5 49 -15 9 -23 43 -37 104 -44 53 -6 55 -7 56 -36 1 -50 3 -52
42 -68 20 -8 48 -27 61 -41 27 -29 66 -34 75 -11 6 16 32 20 40 7 3 -5 9 -34
14 -66 8 -51 7 -56 -8 -51 -9 3 -22 -1 -29 -8 -24 -30 -61 -109 -61 -132 0
-13 -4 -27 -10 -30 -18 -11 -11 -35 25 -81 19 -25 41 -69 49 -98 9 -29 25 -65
37 -79 23 -30 24 -30 -58 -46 -203 -41 -462 -12 -662 74 -87 37 -206 107 -206
121 0 6 17 30 37 53 l37 44 93 -59 c145 -92 328 -177 344 -161 3 3 -41 83 -99
179 -180 299 -237 409 -348 672 -66 158 -67 139 17 251 75 100 234 244 234
211z m294 -288 c-5 -8 19 -10 94 -5 82 4 102 2 102 -8 0 -8 11 -26 23 -41 32
-36 57 -27 57 21 l0 35 118 0 c217 0 605 -35 721 -64 38 -9 47 -17 61 -51 17
-39 16 -44 -7 -140 -26 -111 -89 -250 -154 -346 l-44 -64 -6 44 c-7 54 -33 77
-95 87 -31 4 -56 16 -75 35 -16 16 -35 29 -41 29 -9 0 -9 3 0 12 18 18 15 31
-6 26 -10 -3 -24 1 -31 9 -8 9 -21 12 -35 8 -60 -20 -91 -17 -129 13 -34 28
-41 29 -75 20 -55 -15 -74 -26 -104 -61 l-26 -32 -25 23 c-21 20 -31 22 -76
16 -50 -6 -51 -6 -51 20 0 15 5 47 11 71 8 32 8 48 -1 65 -11 21 -17 22 -82
16 l-70 -6 22 32 c31 47 52 97 45 108 -15 24 -115 -7 -115 -35 0 -8 -15 -23
-34 -31 -31 -15 -35 -15 -60 1 -40 26 -44 60 -13 116 15 26 27 54 27 62 0 18
14 25 53 26 19 1 26 -3 21 -11z m256 -24 c0 -31 -23 -28 -28 4 -2 15 2 22 12
22 11 0 16 -9 16 -26z m-893 -16 c-2 -7 4 -30 14 -50 11 -21 18 -41 17 -45 -1
-5 6 -23 16 -42 10 -18 12 -30 6 -26 -6 4 0 -12 15 -35 15 -23 21 -39 14 -34
-7 4 -3 -7 10 -24 12 -18 19 -32 16 -32 -4 0 0 -11 9 -25 9 -14 13 -25 10 -25
-4 0 1 -9 10 -19 10 -11 18 -26 20 -34 1 -8 8 -22 15 -31 7 -9 10 -16 5 -16
-4 0 2 -9 14 -20 12 -12 22 -25 22 -30 0 -21 2 -26 18 -44 9 -10 16 -21 14
-25 -1 -3 5 -14 13 -23 8 -10 12 -18 9 -18 -8 0 36 -71 60 -97 12 -12 22 -27
22 -32 1 -6 2 -16 3 -22 0 -5 6 -7 11 -4 6 3 10 -1 10 -11 0 -9 8 -23 18 -31
11 -10 12 -12 2 -8 -8 4 -5 -2 8 -13 12 -11 22 -27 22 -35 0 -8 10 -22 23 -31
12 -9 15 -14 7 -11 -8 4 -6 -1 4 -9 11 -9 16 -16 11 -16 -5 0 0 -7 11 -15 33
-25 6 -16 -76 25 -44 22 -130 74 -191 115 -62 42 -115 74 -119 73 -15 -6 -143
-154 -210 -243 -112 -149 -201 -303 -235 -406 -24 -71 -35 -79 -110 -79 l-64
0 -59 118 c-100 200 -207 348 -297 413 -41 30 -45 36 -45 75 0 123 78 337 190
519 22 36 40 69 40 73 -1 4 -40 26 -88 49 -93 44 -278 161 -269 169 3 3 54 1
114 -5 209 -20 367 -23 518 -11 83 7 168 13 190 15 49 4 207 33 213 40 10 10
24 5 19 -7z m1910 -520 c-2 -13 -4 -3 -4 22 0 25 2 35 4 23 2 -13 2 -33 0 -45z
m-10 -90 c-3 -8 -6 -5 -6 6 -1 11 2 17 5 13 3 -3 4 -12 1 -19z m-17 -102 c-7
-22 -14 -50 -16 -62 -14 -79 -131 -294 -159 -294 -11 0 -6 13 19 48 29 41 82
138 107 197 16 38 37 110 45 155 6 34 9 39 12 20 2 -13 -1 -42 -8 -64z m-349
22 c1 -7 1 -16 0 -20 0 -5 4 -8 11 -8 6 0 9 -3 5 -6 -3 -4 1 -20 9 -36 8 -16
12 -33 9 -38 -3 -6 -2 -10 2 -10 5 0 10 -9 11 -20 1 -11 3 -29 4 -40 1 -11 6
-20 11 -20 5 0 7 -7 3 -15 -3 -8 1 -33 10 -56 8 -24 12 -51 8 -61 -3 -10 -1
-18 5 -18 6 0 10 -8 9 -17 -4 -57 -7 -56 115 -49 208 12 256 19 437 63 205 50
365 130 475 239 43 41 61 55 51 37 -55 -98 -183 -451 -212 -588 -9 -38 -11
-40 -65 -53 -51 -12 -57 -17 -63 -44 -3 -17 -4 -33 -1 -36 2 -3 29 4 59 16
l54 20 -4 -66 c-3 -37 -6 -88 -8 -114 -2 -27 1 -48 5 -48 24 0 4 -19 -41 -40
-42 -20 -50 -28 -50 -51 0 -24 -9 -34 -59 -63 -117 -68 -229 -105 -347 -115
-60 -5 -170 -21 -243 -35 l-135 -26 -38 37 c-38 37 -38 38 -16 46 22 8 21 10
-25 54 -45 42 -49 44 -70 30 -20 -13 -26 -10 -97 43 -41 31 -94 69 -116 83
l-42 26 35 68 c78 152 152 364 212 608 43 175 71 298 71 316 0 21 19 27 21 7z
m426 -136 c19 -18 31 -37 27 -44 -4 -6 -3 -8 3 -5 10 7 28 -20 25 -35 -1 -5 2
-8 7 -8 8 0 18 -20 27 -55 2 -5 6 -20 10 -32 6 -23 6 -23 -68 -37 -13 -3 -65
-8 -116 -12 l-94 -7 40 74 c22 41 52 108 68 149 15 41 30 68 32 60 3 -8 20
-30 39 -48z m-1981 -130 c0 -4 10 -24 23 -44 12 -20 22 -39 22 -42 0 -3 11
-18 24 -32 14 -15 23 -29 21 -32 -3 -2 5 -13 17 -23 21 -18 21 -18 2 -18 -58
0 -235 55 -235 74 0 3 23 37 52 75 36 48 55 67 63 59 5 -5 10 -13 11 -17z
m350 -343 c3 -6 -5 -3 -20 6 -14 10 -26 19 -26 22 0 7 39 -17 46 -28z m213
-105 c13 -3 36 -11 51 -19 15 -8 30 -12 32 -9 3 2 17 0 32 -6 38 -14 94 -22
144 -21 24 1 50 -3 57 -9 9 -7 21 -7 39 0 42 16 67 13 59 -6 -5 -15 -20 -16
-117 -10 -157 9 -296 50 -433 128 -88 49 -70 51 24 2 48 -25 99 -48 112 -50z
m741 2 c0 -12 -52 -36 -110 -50 l-25 -7 24 18 c12 10 42 25 65 34 22 10 42 17
44 18 1 1 2 -5 2 -13z m-1533 -42 c-3 -3 -12 -4 -19 -1 -8 3 -5 6 6 6 11 1 17
-2 13 -5z m846 -41 c15 -8 32 -11 37 -8 6 3 10 1 10 -5 0 -6 4 -9 9 -6 5 4 22
1 38 -5 48 -19 212 -25 343 -13 50 5 170 32 212 49 15 6 14 -1 -7 -49 -14 -31
-39 -84 -56 -117 -28 -57 -30 -74 -9 -74 5 0 16 -9 25 -20 9 -11 13 -14 10 -6
-11 20 33 -11 68 -48 16 -17 32 -30 36 -28 5 1 18 -9 30 -23 13 -14 19 -18 15
-10 -4 9 2 6 13 -5 11 -11 20 -21 19 -21 0 -1 -29 -18 -63 -38 -35 -21 -63
-39 -63 -42 0 -3 52 -4 115 -3 110 1 117 0 136 -22 11 -13 24 -24 29 -24 5 0
11 -3 15 -6 20 -20 -287 -28 -397 -10 -179 30 -224 51 -489 229 -67 45 -127
82 -133 82 -14 0 -66 127 -66 162 0 14 8 40 17 56 15 26 22 30 48 25 16 -3 43
-12 58 -20z m-606 11 c-3 -3 -12 -4 -19 -1 -8 3 -5 6 6 6 11 1 17 -2 13 -5z
m308 -104 c3 -6 -1 -7 -9 -4 -18 7 -21 14 -7 14 6 0 13 -4 16 -10z m1186 -317
c13 -16 12 -17 -3 -4 -17 13 -22 21 -14 21 2 0 10 -8 17 -17z m-996 -422 l223
-109 139 -7 c76 -4 266 -2 423 5 268 11 377 21 547 51 58 10 74 10 87 0 9 -7
13 -18 9 -24 -3 -5 -1 -7 5 -3 6 3 13 2 17 -3 7 -13 -44 -27 -185 -50 -235
-40 -328 -46 -685 -45 l-350 0 -180 88 c-99 49 -203 99 -232 112 -58 26 -76
49 -62 76 5 10 12 18 15 18 3 0 106 -49 229 -109z m1479 -47 c3 -9 6 -23 6
-32 0 -13 -5 -11 -20 8 -11 14 -20 28 -20 33 0 14 28 7 34 -9z"/>
<path d="M2150 2565 c0 -8 5 -15 10 -15 6 0 10 7 10 15 0 8 -4 15 -10 15 -5 0
-10 -7 -10 -15z"/>
<path d="M2374 3155 c-33 -33 -23 -45 36 -45 41 0 51 -4 68 -27 17 -24 28 -27
86 -31 55 -4 66 -2 66 11 0 37 -140 117 -206 117 -14 0 -36 -11 -50 -25z m164
-36 c34 -17 62 -35 62 -40 0 -5 -16 -9 -35 -9 -24 0 -45 9 -68 30 -28 24 -44
30 -83 30 -35 0 -45 3 -34 10 30 19 96 11 158 -21z"/>
<path d="M2661 3064 c-17 -14 -31 -34 -31 -45 0 -22 -4 -21 83 -24 60 -2 67 0
67 17 0 23 -52 78 -73 78 -9 0 -29 -12 -46 -26z m85 -26 c19 -21 19 -21 -5
-15 -12 3 -34 1 -47 -5 -19 -9 -28 -8 -37 1 -9 10 -8 15 7 27 28 20 60 17 82
-8z"/>
<path d="M2500 3031 c0 -12 51 -29 68 -23 10 3 10 7 1 18 -13 15 -69 19 -69 5z"/>
<path d="M2790 3026 c0 -10 9 -16 21 -16 24 0 21 23 -4 28 -10 2 -17 -3 -17
-12z"/>
<path d="M2900 2981 c0 -18 31 -83 37 -77 8 8 -18 86 -29 86 -4 0 -8 -4 -8 -9z"/>
<path d="M3962 1670 c-39 -18 -42 -22 -36 -47 11 -54 10 -53 53 -36 39 15 41
18 41 60 0 23 -3 43 -7 42 -5 0 -27 -9 -51 -19z"/>
<path d="M6550 3721 c-92 -28 -172 -103 -203 -187 -25 -70 -24 -243 2 -300 44
-97 133 -160 246 -174 163 -20 342 69 302 150 -18 37 -53 37 -97 1 -88 -71
-251 -63 -322 16 -64 70 -64 237 -1 321 52 69 154 91 240 53 33 -15 47 -30 65
-68 17 -36 29 -49 48 -51 43 -4 54 11 58 82 6 96 -3 134 -35 142 -14 4 -34 2
-45 -5 -14 -9 -31 -7 -78 9 -60 20 -134 25 -180 11z"/>
<path d="M7200 3721 c-94 -31 -164 -94 -207 -186 -23 -51 -27 -73 -27 -147 0
-79 3 -92 34 -154 102 -199 330 -237 478 -80 67 71 87 127 87 246 0 78 -5 103
-23 141 -55 111 -145 176 -254 184 -35 3 -74 1 -88 -4z m150 -123 c33 -17 54
-38 78 -78 28 -47 32 -63 32 -125 0 -84 -21 -137 -73 -182 -127 -111 -300 -23
-314 160 -14 174 136 296 277 225z"/>
<path d="M5672 3698 c-16 -16 -15 -63 1 -76 6 -6 26 -12 42 -14 l30 -3 3 -211
2 -211 -31 -7 c-42 -8 -59 -23 -59 -52 0 -52 9 -54 306 -54 l274 0 0 103 c0
92 -2 106 -20 122 -28 25 -74 10 -78 -25 -1 -14 -5 -40 -8 -57 l-5 -33 -139 0
-140 0 0 43 c0 23 3 59 6 80 6 36 8 37 50 37 36 0 44 -3 44 -18 0 -29 29 -62
55 -62 41 0 55 34 55 137 0 80 -3 96 -20 113 -33 33 -74 19 -85 -30 -6 -28 -9
-30 -56 -30 l-49 0 0 43 c0 23 3 59 6 80 l7 38 121 -3 121 -3 5 -53 c6 -55 19
-72 57 -72 39 0 53 35 53 137 l0 93 -268 0 c-195 0 -271 -3 -280 -12z"/>
<path d="M7632 3698 c-7 -7 -12 -25 -12 -41 0 -23 6 -31 30 -40 l30 -11 0
-211 0 -210 -30 -17 c-34 -20 -40 -56 -13 -83 14 -15 38 -16 192 -13 195 4
223 11 290 80 64 65 76 100 76 228 0 113 -1 116 -36 180 -39 71 -97 123 -157
140 -54 14 -355 13 -370 -2z m376 -121 c63 -41 85 -97 80 -210 -3 -104 -16
-130 -79 -166 -30 -17 -54 -21 -128 -21 l-91 0 0 208 c0 115 3 212 8 216 4 5
44 6 89 4 67 -4 89 -9 121 -31z"/>
<path d="M8282 3698 c-16 -16 -15 -63 1 -76 6 -6 26 -12 42 -14 l30 -3 3 -211
2 -211 -31 -7 c-42 -8 -59 -23 -59 -52 0 -52 9 -54 306 -54 l274 0 0 103 c0
92 -2 106 -20 122 -28 25 -74 10 -78 -25 -1 -14 -5 -40 -8 -57 l-5 -33 -139 0
-140 0 0 43 c0 23 3 59 6 80 6 36 8 37 50 37 36 0 44 -3 44 -18 0 -29 29 -62
55 -62 41 0 55 34 55 137 0 80 -3 96 -20 113 -33 33 -74 19 -85 -30 -6 -28 -9
-30 -56 -30 l-49 0 0 43 c0 23 3 59 6 80 l7 38 121 -3 121 -3 5 -53 c6 -55 19
-72 57 -72 39 0 53 35 53 137 l0 93 -268 0 c-195 0 -271 -3 -280 -12z"/>
<path d="M9000 3613 c0 -114 12 -146 54 -151 40 -5 50 10 56 81 l5 62 89 -2
c49 -1 91 -4 93 -7 2 -2 -68 -98 -156 -212 l-161 -208 0 -53 0 -53 251 0 251
0 -3 113 c-4 122 -13 147 -55 147 -39 0 -54 -25 -54 -91 l0 -59 -120 0 c-66 0
-120 2 -120 4 0 3 72 98 160 213 l160 208 0 52 0 53 -225 0 -225 0 0 -97z"/>
<path d="M5510 2460 c0 -11 5 -20 10 -20 6 0 10 9 10 20 0 11 -4 20 -10 20 -5
0 -10 -9 -10 -20z"/>
<path d="M6240 2460 c0 -11 5 -20 10 -20 6 0 10 9 10 20 0 11 -4 20 -10 20 -5
0 -10 -9 -10 -20z"/>
<path d="M6495 2450 c-16 -16 -25 -30 -19 -30 10 1 64 46 64 55 0 13 -18 3
-45 -25z"/>
<path d="M8880 2460 c0 -5 14 -10 30 -10 l30 0 0 -105 0 -105 -40 0 c-22 0
-40 -4 -40 -10 0 -6 35 -10 85 -10 50 0 85 4 85 10 0 6 -18 10 -40 10 l-40 0
0 115 0 115 -35 0 c-19 0 -35 -4 -35 -10z"/>
<path d="M9630 2430 c0 -23 -4 -30 -20 -30 -11 0 -20 -4 -20 -10 0 -5 9 -10
20 -10 18 0 20 -7 20 -65 0 -58 3 -66 25 -81 30 -20 90 -13 114 12 15 15 14
16 -4 10 -42 -16 -85 -18 -100 -6 -10 8 -15 31 -15 71 l0 59 50 0 c28 0 50 5
50 10 0 6 -22 10 -50 10 -49 0 -50 1 -50 30 0 17 -4 30 -10 30 -5 0 -10 -13
-10 -30z"/>
<path d="M4460 2440 c0 -5 14 -10 30 -10 17 0 30 -2 30 -4 0 -17 -71 -181 -79
-184 -26 -9 -8 -22 29 -22 22 0 40 5 40 10 0 6 -9 10 -21 10 -15 0 -19 4 -15
16 3 9 6 20 6 25 0 5 27 9 60 9 48 0 61 -4 70 -19 14 -27 13 -31 -10 -31 -11
0 -20 -4 -20 -10 0 -5 18 -10 40 -10 42 0 49 6 26 24 -7 6 -30 55 -51 109
l-37 97 -49 0 c-27 0 -49 -4 -49 -10z m129 -117 c1 -9 -14 -13 -44 -13 -25 0
-45 4 -45 9 0 4 10 32 22 62 l22 53 22 -50 c13 -27 23 -55 23 -61z"/>
<path d="M7140 2440 c0 -5 7 -10 15 -10 12 0 15 -17 15 -95 0 -78 -3 -95 -15
-95 -8 0 -15 -4 -15 -10 0 -17 119 -12 150 7 68 40 68 163 -1 199 -32 16 -149
19 -149 4z m159 -36 c29 -37 29 -110 -1 -141 -16 -17 -32 -23 -65 -23 l-43 0
0 95 0 95 44 0 c36 0 48 -5 65 -26z"/>
<path d="M7860 2440 c0 -5 7 -10 15 -10 12 0 15 -17 15 -95 0 -78 -3 -95 -15
-95 -8 0 -15 -4 -15 -10 0 -5 20 -10 45 -10 25 0 45 5 45 10 0 6 -9 10 -20 10
-17 0 -20 7 -20 40 0 36 3 40 24 40 40 0 55 -10 87 -56 16 -24 36 -44 44 -44
21 0 20 2 -29 56 l-44 48 24 19 c31 24 32 70 2 91 -25 18 -158 23 -158 6z
m152 -27 c10 -9 18 -22 18 -29 0 -21 -42 -44 -82 -44 l-38 0 0 45 0 45 42 0
c24 0 49 -7 60 -17z"/>
<path d="M4730 2382 c-17 -13 -21 -24 -16 -40 7 -22 15 -25 89 -37 73 -12 52
-65 -25 -65 -27 0 -41 6 -50 20 -18 28 -28 25 -28 -10 0 -16 5 -30 10 -30 6 0
10 5 10 10 0 7 6 7 19 0 35 -18 80 -12 107 15 24 24 25 28 11 48 -13 20 -30
27 -99 42 -30 6 -37 29 -12 39 28 11 72 6 88 -9 20 -21 26 -19 26 10 0 14 -4
25 -10 25 -5 0 -10 -5 -10 -10 0 -7 -6 -7 -19 0 -30 15 -66 12 -91 -8z"/>
<path d="M4994 2391 c-55 -24 -69 -92 -30 -138 32 -37 103 -40 138 -5 30 29
31 93 2 122 -23 24 -79 34 -110 21z m93 -33 c29 -27 29 -65 1 -95 -44 -47
-128 -16 -128 47 0 62 80 92 127 48z"/>
<path d="M5235 2388 c-32 -19 -44 -40 -45 -80 0 -43 24 -74 67 -84 31 -8 104
15 111 34 3 11 -3 10 -26 -2 -48 -25 -97 -21 -121 10 -12 15 -21 34 -21 44 0
10 9 29 21 44 27 34 88 37 119 4 l20 -22 0 35 c0 23 -3 30 -9 20 -6 -10 -13
-11 -29 -2 -26 14 -61 14 -87 -1z"/>
<path d="M5460 2390 c0 -5 14 -10 30 -10 l30 0 0 -70 0 -70 -40 0 c-22 0 -40
-4 -40 -10 0 -6 35 -10 85 -10 50 0 85 4 85 10 0 6 -18 10 -40 10 l-40 0 0 80
0 80 -35 0 c-19 0 -35 -4 -35 -10z"/>
<path d="M5713 2390 c-34 -14 -28 -22 12 -14 52 9 85 -2 85 -29 0 -20 -4 -22
-43 -19 -75 6 -126 -56 -75 -92 28 -20 55 -20 91 -2 23 13 27 13 27 0 0 -8 10
-14 25 -14 14 0 25 5 25 10 0 6 -7 10 -15 10 -12 0 -15 14 -15 64 0 56 -3 67
-22 80 -25 18 -61 20 -95 6z m97 -103 c0 -16 -9 -28 -25 -35 -47 -22 -95 -12
-95 19 0 25 27 38 78 39 37 0 42 -2 42 -23z"/>
<path d="M5975 2388 c-32 -19 -44 -40 -45 -80 0 -43 24 -74 67 -84 31 -8 104
15 111 34 3 11 -3 10 -26 -2 -48 -25 -97 -21 -121 10 -12 15 -21 34 -21 44 0
10 9 29 21 44 27 34 88 37 119 4 l20 -22 0 35 c0 23 -3 30 -9 20 -6 -10 -13
-11 -29 -2 -26 14 -61 14 -87 -1z"/>
<path d="M6190 2390 c0 -5 14 -10 30 -10 l30 0 0 -70 0 -70 -40 0 c-22 0 -40
-4 -40 -10 0 -6 35 -10 85 -10 50 0 85 4 85 10 0 6 -18 10 -40 10 l-40 0 0 80
0 80 -35 0 c-19 0 -35 -4 -35 -10z"/>
<path d="M6464 2391 c-55 -24 -69 -92 -30 -138 20 -23 32 -28 71 -28 39 0 51
5 72 29 46 54 14 132 -58 141 -19 3 -44 1 -55 -4z m93 -33 c29 -27 29 -65 1
-95 -44 -47 -128 -16 -128 47 0 62 80 92 127 48z"/>
<path d="M6650 2390 c0 -5 5 -10 10 -10 6 0 10 -30 10 -70 0 -56 -3 -70 -15
-70 -8 0 -15 -4 -15 -10 0 -5 18 -10 40 -10 22 0 40 5 40 10 0 6 -7 10 -15 10
-11 0 -15 13 -15 54 0 45 4 58 22 70 27 19 59 21 76 4 14 -14 16 -128 2 -128
-5 0 -10 -4 -10 -10 0 -5 14 -10 30 -10 17 0 30 5 30 10 0 6 -4 10 -10 10 -6
0 -10 27 -10 60 0 47 -4 64 -20 80 -23 23 -51 25 -83 9 -16 -9 -22 -9 -25 0
-5 14 -42 15 -42 1z"/>
<path d="M7411 2374 c-59 -49 -33 -134 46 -150 33 -7 103 11 103 27 0 5 -11 4
-26 -1 -58 -23 -108 -8 -133 38 l-12 22 86 0 c88 0 95 4 79 45 -8 20 -56 45
-88 45 -13 0 -38 -12 -55 -26z m119 -19 l23 -25 -83 0 -83 0 23 25 c17 18 34
25 60 25 26 0 43 -7 60 -25z"/>
<path d="M8151 2374 c-59 -49 -33 -134 46 -150 33 -7 103 11 103 27 0 5 -11 4
-26 -1 -58 -23 -108 -8 -133 38 l-12 22 86 0 c88 0 95 4 79 45 -8 20 -56 45
-88 45 -13 0 -38 -12 -55 -26z m119 -19 l23 -25 -83 0 -83 0 23 25 c17 18 34
25 60 25 26 0 43 -7 60 -25z"/>
<path d="M8415 2388 c-32 -19 -44 -40 -45 -80 0 -43 24 -74 67 -84 31 -8 104
15 111 34 3 11 -3 10 -26 -2 -48 -25 -97 -21 -121 10 -12 15 -21 34 -21 44 0
10 9 29 21 44 27 34 88 37 119 4 l20 -22 0 35 c0 23 -3 30 -9 20 -6 -10 -13
-11 -29 -2 -26 14 -61 14 -87 -1z"/>
<path d="M8664 2391 c-55 -24 -69 -92 -30 -138 20 -23 32 -28 71 -28 39 0 51
5 72 29 46 54 14 132 -58 141 -19 3 -44 1 -55 -4z m93 -33 c29 -27 29 -65 1
-95 -44 -47 -128 -16 -128 47 0 62 80 92 127 48z"/>
<path d="M9131 2374 c-59 -49 -33 -134 46 -150 33 -7 103 11 103 27 0 5 -11 4
-26 -1 -58 -23 -108 -8 -133 38 l-12 22 86 0 c88 0 95 4 79 45 -8 20 -56 45
-88 45 -13 0 -38 -12 -55 -26z m119 -19 l23 -25 -83 0 -83 0 23 25 c17 18 34
25 60 25 26 0 43 -7 60 -25z"/>
<path d="M9395 2388 c-32 -19 -44 -40 -45 -80 0 -43 24 -74 67 -84 31 -8 104
15 111 34 3 11 -3 10 -26 -2 -48 -25 -97 -21 -121 10 -12 15 -21 34 -21 44 0
10 9 29 21 44 27 34 88 37 119 4 l20 -22 0 35 c0 23 -3 30 -9 20 -6 -10 -13
-11 -29 -2 -26 14 -61 14 -87 -1z"/>
<path d="M9884 2391 c-55 -24 -69 -92 -30 -138 20 -23 32 -28 71 -28 39 0 51
5 72 29 46 54 14 132 -58 141 -19 3 -44 1 -55 -4z m93 -33 c29 -27 29 -65 1
-95 -44 -47 -128 -16 -128 47 0 62 80 92 127 48z"/>
<path d="M10090 2390 c0 -5 9 -10 20 -10 18 0 20 -7 20 -70 0 -68 -1 -70 -25
-70 -14 0 -25 -4 -25 -10 0 -6 32 -10 75 -10 43 0 75 4 75 10 0 6 -20 10 -45
10 l-45 0 0 44 c0 40 4 48 35 72 26 20 41 25 62 19 23 -5 25 -4 14 9 -18 22
-43 20 -74 -4 -14 -11 -28 -20 -31 -20 -3 0 -6 9 -6 20 0 15 -7 20 -25 20 -14
0 -25 -4 -25 -10z"/>
<path d="M10351 2374 c-59 -49 -33 -134 46 -150 33 -7 103 11 103 27 0 5 -11
4 -26 -1 -58 -23 -108 -8 -133 38 l-12 22 86 0 c88 0 95 4 79 45 -8 20 -56 45
-88 45 -13 0 -38 -12 -55 -26z m119 -19 l23 -25 -83 0 -83 0 23 25 c17 18 34
25 60 25 26 0 43 -7 60 -25z"/>
<path d="M10600 2382 c-17 -13 -21 -24 -16 -40 7 -22 15 -25 89 -37 73 -12 52
-65 -25 -65 -27 0 -41 6 -50 20 -18 28 -28 25 -28 -10 0 -16 5 -30 10 -30 6 0
10 5 10 10 0 7 6 7 19 0 35 -18 80 -12 107 15 24 24 25 28 11 48 -13 20 -30
27 -99 42 -30 6 -37 29 -12 39 28 11 72 6 88 -9 20 -21 26 -19 26 10 0 14 -4
25 -10 25 -5 0 -10 -5 -10 -10 0 -7 -6 -7 -19 0 -30 15 -66 12 -91 -8z"/>
</g>
</svg>
